<svg width="19" height="20" viewBox="0 0 19 20" fill="none" xmlns="http://www.w3.org/2000/svg">
<path d="M9.5 9.70581C10.7432 9.70581 11.9355 9.21195 12.8146 8.33287C13.6936 7.4538 14.1875 6.26151 14.1875 5.01831C14.1875 3.77511 13.6936 2.58282 12.8146 1.70375C11.9355 0.824671 10.7432 0.330811 9.5 0.330811C8.2568 0.330811 7.06451 0.824671 6.18544 1.70375C5.30636 2.58282 4.8125 3.77511 4.8125 5.01831C4.8125 6.26151 5.30636 7.4538 6.18544 8.33287C7.06451 9.21195 8.2568 9.70581 9.5 9.70581ZM12.625 5.01831C12.625 5.84711 12.2958 6.64197 11.7097 7.22802C11.1237 7.81407 10.3288 8.14331 9.5 8.14331C8.6712 8.14331 7.87634 7.81407 7.29029 7.22802C6.70424 6.64197 6.375 5.84711 6.375 5.01831C6.375 4.18951 6.70424 3.39465 7.29029 2.8086C7.87634 2.22255 8.6712 1.89331 9.5 1.89331C10.3288 1.89331 11.1237 2.22255 11.7097 2.8086C12.2958 3.39465 12.625 4.18951 12.625 5.01831ZM18.875 17.5183C18.875 19.0808 17.3125 19.0808 17.3125 19.0808H1.6875C1.6875 19.0808 0.125 19.0808 0.125 17.5183C0.125 15.9558 1.6875 11.2683 9.5 11.2683C17.3125 11.2683 18.875 15.9558 18.875 17.5183ZM17.3125 17.5121C17.3109 17.1277 17.0719 15.9714 16.0125 14.9121C14.9938 13.8933 13.0766 12.8308 9.5 12.8308C5.92188 12.8308 4.00625 13.8933 2.9875 14.9121C1.92813 15.9714 1.69062 17.1277 1.6875 17.5121H17.3125Z" fill="black"/>
</svg>
