<svg width="16" height="15" viewBox="0 0 16 15" fill="none" xmlns="http://www.w3.org/2000/svg">
<path d="M15.3689 3.07483C15.1246 2.5134 14.7722 2.00463 14.3316 1.57701C13.8906 1.14812 13.3707 0.807286 12.8002 0.573042C12.2085 0.329182 11.5739 0.20436 10.9333 0.205823C10.0345 0.205823 9.15756 0.450033 8.39549 0.911317C8.21318 1.02166 8.03998 1.14286 7.8759 1.27492C7.71182 1.14286 7.53862 1.02166 7.35631 0.911317C6.59424 0.450033 5.71732 0.205823 4.81852 0.205823C4.17131 0.205823 3.54416 0.328833 2.95164 0.573042C2.37918 0.808207 1.86323 1.14648 1.42021 1.57701C0.979012 2.00415 0.626568 2.51304 0.382856 3.07483C0.129442 3.65913 0 4.2796 0 4.91816C0 5.52055 0.123973 6.14825 0.370095 6.78682C0.576108 7.32046 0.871454 7.874 1.24884 8.43297C1.84683 9.31755 2.66906 10.2401 3.69001 11.1754C5.38187 12.7256 7.05732 13.7965 7.12842 13.8399L7.5605 14.1149C7.75193 14.2361 7.99805 14.2361 8.18948 14.1149L8.62156 13.8399C8.69266 13.7947 10.3663 12.7256 12.06 11.1754C13.0809 10.2401 13.9032 9.31755 14.5011 8.43297C14.8785 7.874 15.1757 7.32046 15.3799 6.78682C15.626 6.14825 15.75 5.52055 15.75 4.91816C15.7518 4.2796 15.6224 3.65913 15.3689 3.07483ZM7.8759 12.684C7.8759 12.684 1.38558 8.55779 1.38558 4.91816C1.38558 3.07483 2.92247 1.58063 4.81852 1.58063C6.15122 1.58063 7.30709 2.31869 7.8759 3.39683C8.44472 2.31869 9.60058 1.58063 10.9333 1.58063C12.8293 1.58063 14.3662 3.07483 14.3662 4.91816C14.3662 8.55779 7.8759 12.684 7.8759 12.684Z" fill="white"/>
</svg>
