<svg width="19" height="19" viewBox="0 0 19 19" fill="none" xmlns="http://www.w3.org/2000/svg">
<path d="M18.2503 12.9667H5.63794L6.27121 11.6078L16.7931 11.5877C17.1489 11.5877 17.4539 11.32 17.5174 10.9496L18.9746 2.3568C19.0127 2.13143 18.9555 1.89938 18.8157 1.7231C18.7467 1.63635 18.6605 1.56647 18.5632 1.51831C18.4659 1.47014 18.3599 1.44485 18.2524 1.44419L4.86702 1.39733L4.75265 0.830578C4.68064 0.469105 4.37142 0.205811 4.01984 0.205811H0.747631C0.549347 0.205811 0.359184 0.288795 0.218976 0.436509C0.0787681 0.584222 0 0.784565 0 0.993464C0 1.20236 0.0787681 1.40271 0.218976 1.55042C0.359184 1.69813 0.549347 1.78112 0.747631 1.78112H3.41411L3.91394 4.28465L5.14447 10.5613L3.56025 13.2858C3.47798 13.4028 3.42843 13.5417 3.4172 13.6868C3.40597 13.8319 3.43351 13.9774 3.49671 14.1069C3.62379 14.3724 3.88006 14.5398 4.16386 14.5398H5.49392C5.21037 14.9365 5.05721 15.4198 5.05763 15.9165C5.05763 17.1794 6.03188 18.2058 7.23063 18.2058C8.42938 18.2058 9.40363 17.1794 9.40363 15.9165C9.40363 15.4189 9.24691 14.9347 8.96734 14.5398H12.3793C12.0958 14.9365 11.9426 15.4198 11.943 15.9165C11.943 17.1794 12.9173 18.2058 14.116 18.2058C15.3148 18.2058 16.289 17.1794 16.289 15.9165C16.289 15.4189 16.1323 14.9347 15.8527 14.5398H18.2524C18.6632 14.5398 19 14.1872 19 13.7521C18.9988 13.5434 18.9192 13.3437 18.7788 13.1966C18.6383 13.0494 18.4483 12.9668 18.2503 12.9667ZM5.17835 2.95033L17.3734 2.99272L16.1789 10.0392L6.59949 10.0571L5.17835 2.95033ZM7.23063 16.6216C6.86211 16.6216 6.56136 16.3047 6.56136 15.9165C6.56136 15.5282 6.86211 15.2114 7.23063 15.2114C7.59915 15.2114 7.8999 15.5282 7.8999 15.9165C7.8999 16.1035 7.82939 16.2828 7.70388 16.4151C7.57836 16.5473 7.40813 16.6216 7.23063 16.6216ZM14.116 16.6216C13.7475 16.6216 13.4468 16.3047 13.4468 15.9165C13.4468 15.5282 13.7475 15.2114 14.116 15.2114C14.4846 15.2114 14.7853 15.5282 14.7853 15.9165C14.7853 16.1035 14.7148 16.2828 14.5893 16.4151C14.4638 16.5473 14.2935 16.6216 14.116 16.6216Z" fill="white"/>
</svg>
