<svg width="16" height="17" viewBox="0 0 16 17" fill="none" xmlns="http://www.w3.org/2000/svg">
<path d="M11.7419 10.5499C12.7102 9.2286 13.1439 7.5904 12.9562 5.96306C12.7685 4.33572 11.9733 2.83925 10.7297 1.77304C9.48604 0.706832 7.88567 0.149515 6.24876 0.212588C4.61184 0.275661 3.05911 0.954473 1.90119 2.11322C0.743273 3.27196 0.0655718 4.82519 0.00366997 6.46214C-0.0582319 8.0991 0.500231 9.69907 1.56733 10.942C2.63443 12.1848 4.13147 12.979 5.75894 13.1655C7.38641 13.352 9.0243 12.9172 10.3449 11.9479H10.3439C10.3739 11.9879 10.4059 12.0259 10.4419 12.0629L14.2919 15.9129C14.4794 16.1006 14.7338 16.206 14.9991 16.2061C15.2643 16.2062 15.5188 16.1009 15.7064 15.9134C15.8941 15.7259 15.9995 15.4715 15.9996 15.2063C15.9997 14.941 15.8944 14.6866 15.7069 14.4989L11.8569 10.6489C11.8212 10.6127 11.7827 10.5793 11.7419 10.5489V10.5499ZM11.9999 6.70591C11.9999 7.42818 11.8577 8.14338 11.5813 8.81067C11.3049 9.47796 10.8997 10.0843 10.389 10.595C9.87829 11.1057 9.27197 11.5108 8.60468 11.7872C7.93739 12.0636 7.22219 12.2059 6.49992 12.2059C5.77765 12.2059 5.06245 12.0636 4.39516 11.7872C3.72787 11.5108 3.12156 11.1057 2.61083 10.595C2.10011 10.0843 1.69498 9.47796 1.41858 8.81067C1.14218 8.14338 0.999921 7.42818 0.999921 6.70591C0.999921 5.24722 1.57938 3.84827 2.61083 2.81682C3.64228 1.78537 5.04123 1.20591 6.49992 1.20591C7.95861 1.20591 9.35756 1.78537 10.389 2.81682C11.4205 3.84827 11.9999 5.24722 11.9999 6.70591Z" fill="white"/>
</svg>
