<svg width="25" height="25" viewBox="0 0 25 25" fill="none" xmlns="http://www.w3.org/2000/svg">
<path d="M22.6567 6.20851C21.9097 6.53077 21.0967 6.7627 20.2593 6.85304C21.1287 6.33652 21.7798 5.52052 22.0903 4.55812C21.2745 5.04344 20.3807 5.38376 19.4487 5.56397C19.0592 5.14754 18.5881 4.81578 18.0647 4.58938C17.5413 4.36299 16.977 4.2468 16.4067 4.24806C14.0996 4.24806 12.2441 6.11817 12.2441 8.41309C12.2441 8.73536 12.2832 9.05763 12.3467 9.36768C8.89209 9.18702 5.81104 7.53663 3.7627 5.00978C3.38947 5.64726 3.19388 6.37312 3.19629 7.11182C3.19629 8.55714 3.93115 9.83155 5.05176 10.5811C4.39137 10.5551 3.74644 10.3735 3.16943 10.0513V10.1025C3.16943 12.1265 4.6001 13.8037 6.50684 14.1895C6.14883 14.2825 5.78054 14.33 5.41065 14.3311C5.13965 14.3311 4.8833 14.3042 4.62451 14.2676C5.15186 15.918 6.6875 17.1167 8.51611 17.1558C7.08545 18.2764 5.29346 18.9356 3.34766 18.9356C2.99854 18.9356 2.67627 18.9233 2.3418 18.8843C4.1875 20.0684 6.37744 20.752 8.73584 20.752C16.3921 20.752 20.5815 14.4092 20.5815 8.90382C20.5815 8.72315 20.5815 8.54249 20.5693 8.36182C21.3799 7.76856 22.0903 7.0337 22.6567 6.20851Z" fill="white" fill-opacity="0.7"/>
</svg>
